:version	1.10
:name	0101
:units
	mass	kg
	length	m
	angle	deg
:documentation
	fps:30
:root
	axis	XYZ
	order	TX	TY	TZ	RX	RY	RZ
	position	0.00	0.00	0.00
	orientation	0.00	0.00	0.00
:bonedata
	begin
		id	1
		name	Head
		direction	-18.5	116.2	-38.8
		length	123.9
		axis	0.0	0.0	0.0	XYZ
		dof	rx	ry	rz
		limits	(-inf	inf)
			(-inf	inf)
			(-inf	inf)
	end
	begin
		id	2
		name	Neck
		direction	-1.6	89.5	-15.3
		length	90.8
		axis	0.0	0.0	0.0	XYZ
		dof	rx	ry	rz
		limits	(-inf	inf)
			(-inf	inf)
			(-inf	inf)
	end
	begin
		id	3
		name	LeftCollar
		direction	-5.0	276.0	-47.2
		length	280.1
		axis	0.0	0.0	0.0	XYZ
		dof	rx	ry	rz
		limits	(-inf	inf)
			(-inf	inf)
			(-inf	inf)
	end
	begin
		id	4
		name	Torso
		direction	4.0	199.4	8.5
		length	199.7
		axis	0.0	0.0	0.0	XYZ
		dof	rx	ry	rz
		limits	(-inf	inf)
			(-inf	inf)
			(-inf	inf)
	end
	begin
		id	5
		name	LeftShoulder
		direction	170.7	-14.1	-44.7
		length	177.0
		axis	0.0	0.0	0.0	XYZ
		dof	rx	ry	rz
		limits	(-inf	inf)
			(-inf	inf)
			(-inf	inf)
	end
	begin
		id	6
		name	RightShoulder
		direction	-174.2	6.3	52.4
		length	182.0
		axis	0.0	0.0	0.0	XYZ
		dof	rx	ry	rz
		limits	(-inf	inf)
			(-inf	inf)
			(-inf	inf)
	end
	begin
		id	7
		name	LeftElbow
		direction	55.3	-271.7	26.6
		length	278.5
		axis	0.0	0.0	0.0	XYZ
		dof	rx	ry	rz
		limits	(-inf	inf)
			(-inf	inf)
			(-inf	inf)
	end
	begin
		id	8
		name	RightElbow
		direction	-37.0	-268.0	66.2
		length	278.5
		axis	0.0	0.0	0.0	XYZ
		dof	rx	ry	rz
		limits	(-inf	inf)
			(-inf	inf)
			(-inf	inf)
	end
	begin
		id	9
		name	LeftWrist
		direction	69.1	-260.5	-128.7
		length	298.7
		axis	0.0	0.0	0.0	XYZ
		dof	rx	ry	rz
		limits	(-inf	inf)
			(-inf	inf)
			(-inf	inf)
	end
	begin
		id	10
		name	RightWrist
		direction	-79.9	-277.4	-76.9
		length	298.7
		axis	0.0	0.0	0.0	XYZ
		dof	rx	ry	rz
		limits	(-inf	inf)
			(-inf	inf)
			(-inf	inf)
	end
	begin
		id	11
		name	LeftHand
		direction	13.8	-52.1	-25.7
		length	59.7
		axis	0.0	0.0	0.0	XYZ
		dof	rx	ry	rz
		limits	(-inf	inf)
			(-inf	inf)
			(-inf	inf)
	end
	begin
		id	12
		name	RightHand
		direction	-16.0	-55.5	-15.4
		length	59.7
		axis	0.0	0.0	0.0	XYZ
		dof	rx	ry	rz
		limits	(-inf	inf)
			(-inf	inf)
			(-inf	inf)
	end
	begin
		id	13
		name	LeftHip
		direction	117.3	-70.1	12.8
		length	137.3
		axis	0.0	0.0	0.0	XYZ
		dof	rx	ry	rz
		limits	(-inf	inf)
			(-inf	inf)
			(-inf	inf)
	end
	begin
		id	14
		name	RightHip
		direction	-108.5	-76.7	41.0
		length	139.0
		axis	0.0	0.0	0.0	XYZ
		dof	rx	ry	rz
		limits	(-inf	inf)
			(-inf	inf)
			(-inf	inf)
	end
	begin
		id	15
		name	LeftKnee
		direction	-0.2	-428.3	-95.5
		length	438.9
		axis	0.0	0.0	0.0	XYZ
		dof	rx	ry	rz
		limits	(-inf	inf)
			(-inf	inf)
			(-inf	inf)
	end
	begin
		id	16
		name	RightKnee
		direction	16.9	-434.8	-56.9
		length	438.9
		axis	0.0	0.0	0.0	XYZ
		dof	rx	ry	rz
		limits	(-inf	inf)
			(-inf	inf)
			(-inf	inf)
	end
	begin
		id	17
		name	LeftAnkle
		direction	51.1	-389.3	75.6
		length	399.8
		axis	0.0	0.0	0.0	XYZ
		dof	rx	ry	rz
		limits	(-inf	inf)
			(-inf	inf)
			(-inf	inf)
	end
	begin
		id	18
		name	RightAnkle
		direction	-36.9	-388.8	85.6
		length	399.8
		axis	0.0	0.0	0.0	XYZ
		dof	rx	ry	rz
		limits	(-inf	inf)
			(-inf	inf)
			(-inf	inf)
	end
:hierarchy
	begin
		Neck	Head
		LeftCollar	Neck	LeftShoulder	RightShoulder
		Torso	LeftCollar
		root	Torso	LeftHip	RightHip
		LeftShoulder	LeftElbow
		RightShoulder	RightElbow
		LeftElbow	LeftWrist
		RightElbow	RightWrist
		LeftWrist	LeftHand
		RightWrist	RightHand
		LeftHip	LeftKnee
		RightHip	RightKnee
		LeftKnee	LeftAnkle
		RightKnee	RightAnkle
	end

:FULLY-SPECIFIED
:DEGREES
185
Head	-4.56	17.92	-2.38
Neck	-4.56	17.92	-2.38
LeftCollar	-4.56	17.92	-2.38
Torso	-4.56	17.92	-2.38
root	93.26	-399.99	3157.33	21.05	6.37	1.63
LeftShoulder	-2.24	15.32	-60.81
RightShoulder	-4.68	6.01	71.64
LeftElbow	-13.75	80.85	-73.79
RightElbow	-13.41	-69.52	84.72
LeftWrist	-11.22	78.81	-71.23
RightWrist	-14.44	-71.01	85.81
LeftHand	-11.22	78.81	-71.23
RightHand	-14.44	-71.01	85.81
LeftHip	80.55	-8.22	2.67
RightHip	68.37	-0.40	6.88
LeftKnee	-8.28	-8.22	2.67
RightKnee	-10.74	-0.40	6.88
LeftAnkle	-8.28	-8.22	2.67
RightAnkle	-10.74	-0.40	6.88
186
Head	-4.64	17.85	-2.39
Neck	-4.64	17.85	-2.39
LeftCollar	-4.64	17.85	-2.39
Torso	-4.64	17.85	-2.39
root	93.89	-400.10	3158.07	21.22	6.15	1.74
LeftShoulder	-1.94	15.15	-60.60
RightShoulder	-3.80	6.21	71.66
LeftElbow	-11.65	80.69	-71.60
RightElbow	-10.40	-68.62	81.77
LeftWrist	-9.58	78.68	-69.49
RightWrist	-11.08	-69.97	82.49
LeftHand	-9.58	78.68	-69.49
RightHand	-11.08	-69.97	82.49
LeftHip	80.52	-7.96	2.73
RightHip	69.13	-0.44	6.80
LeftKnee	-8.49	-7.96	2.73
RightKnee	-9.96	-0.44	6.80
LeftAnkle	-8.49	-7.96	2.73
RightAnkle	-9.96	-0.44	6.80
187
Head	-4.71	17.70	-2.38
Neck	-4.71	17.70	-2.38
LeftCollar	-4.71	17.70	-2.38
Torso	-4.71	17.70	-2.38
root	94.53	-399.83	3157.45	21.35	5.97	1.91
LeftShoulder	-1.51	14.91	-60.28
RightShoulder	-3.02	6.36	71.65
LeftElbow	-8.74	80.38	-68.52
RightElbow	-8.08	-68.11	79.48
LeftWrist	-7.26	78.40	-67.01
RightWrist	-8.54	-69.35	79.98
LeftHand	-7.26	78.40	-67.01
RightHand	-8.54	-69.35	79.98
LeftHip	80.43	-7.71	2.78
RightHip	70.76	-0.60	6.63
LeftKnee	-8.73	-7.71	2.78
RightKnee	-9.06	-0.60	6.63
LeftAnkle	-8.73	-7.71	2.78
RightAnkle	-9.06	-0.60	6.63
188
Head	-4.71	17.70	-2.38
Neck	-4.71	17.70	-2.38
LeftCollar	-4.71	17.70	-2.38
Torso	-4.71	17.70	-2.38
root	94.53	-399.83	3157.45	21.35	5.97	1.91
LeftShoulder	-1.51	14.91	-60.28
RightShoulder	-3.02	6.36	71.65
LeftElbow	-8.74	80.38	-68.52
RightElbow	-8.08	-68.11	79.48
LeftWrist	-7.26	78.40	-67.01
RightWrist	-8.54	-69.35	79.98
LeftHand	-7.26	78.40	-67.01
RightHand	-8.54	-69.35	79.98
LeftHip	80.43	-7.71	2.78
RightHip	70.76	-0.60	6.63
LeftKnee	-8.73	-7.71	2.78
RightKnee	-9.06	-0.60	6.63
LeftAnkle	-8.73	-7.71	2.78
RightAnkle	-9.06	-0.60	6.63
189
Head	-5.65	17.34	-2.48
Neck	-5.65	17.34	-2.48
LeftCollar	-5.65	17.34	-2.48
Torso	-5.65	17.34	-2.48
root	94.94	-399.68	3154.99	20.31	6.08	2.14
LeftShoulder	-0.99	13.42	-60.05
RightShoulder	-3.02	7.16	71.80
LeftElbow	-5.61	80.10	-65.34
RightElbow	-8.01	-67.95	79.61
LeftWrist	-4.74	78.29	-64.46
RightWrist	-8.47	-69.20	80.11
LeftHand	-4.74	78.29	-64.46
RightHand	-8.47	-69.20	80.11
LeftHip	80.35	-7.28	2.87
RightHip	69.63	-0.29	6.86
LeftKnee	-9.04	-7.28	2.87
RightKnee	-8.66	-0.29	6.86
LeftAnkle	-9.04	-7.28	2.87
RightAnkle	-8.66	-0.29	6.86
190
Head	-5.65	17.34	-2.48
Neck	-5.65	17.34	-2.48
LeftCollar	-5.65	17.34	-2.48
Torso	-5.65	17.34	-2.48
root	94.94	-399.68	3154.99	20.31	6.08	2.14
LeftShoulder	-0.99	13.42	-60.05
RightShoulder	-3.02	7.16	71.80
LeftElbow	-5.61	80.10	-65.34
RightElbow	-8.01	-67.95	79.61
LeftWrist	-4.74	78.29	-64.46
RightWrist	-8.47	-69.20	80.11
LeftHand	-4.74	78.29	-64.46
RightHand	-8.47	-69.20	80.11
LeftHip	80.35	-7.28	2.87
RightHip	69.63	-0.29	6.86
LeftKnee	-9.04	-7.28	2.87
RightKnee	-8.66	-0.29	6.86
LeftAnkle	-9.04	-7.28	2.87
RightAnkle	-8.66	-0.29	6.86
191
Head	-5.65	17.34	-2.48
Neck	-5.65	17.34	-2.48
LeftCollar	-5.65	17.34	-2.48
Torso	-5.65	17.34	-2.48
root	94.94	-399.68	3154.99	20.31	6.08	2.14
LeftShoulder	-0.99	13.42	-60.05
RightShoulder	-3.02	7.16	71.80
LeftElbow	-5.61	80.10	-65.34
RightElbow	-8.01	-67.95	79.61
LeftWrist	-4.74	78.29	-64.46
RightWrist	-8.47	-69.20	80.11
LeftHand	-4.74	78.29	-64.46
RightHand	-8.47	-69.20	80.11
LeftHip	80.35	-7.28	2.87
RightHip	69.63	-0.29	6.86
LeftKnee	-9.04	-7.28	2.87
RightKnee	-8.66	-0.29	6.86
LeftAnkle	-9.04	-7.28	2.87
RightAnkle	-8.66	-0.29	6.86
192
Head	-7.48	16.82	-2.92
Neck	-7.48	16.82	-2.92
LeftCollar	-7.48	16.82	-2.92
Torso	-7.48	16.82	-2.92
root	94.42	-400.16	3151.79	18.24	5.97	1.86
LeftShoulder	-0.93	10.80	-59.95
RightShoulder	-3.49	8.80	71.90
LeftElbow	-5.35	80.19	-65.05
RightElbow	-8.67	-66.47	80.40
LeftWrist	-4.65	78.70	-64.34
RightWrist	-9.12	-67.69	80.88
LeftHand	-4.65	78.70	-64.34
RightHand	-9.12	-67.69	80.88
LeftHip	80.48	-7.33	2.86
RightHip	69.68	-0.43	6.90
LeftKnee	-9.31	-7.33	2.86
RightKnee	-9.24	-0.43	6.90
LeftAnkle	-9.31	-7.33	2.86
RightAnkle	-9.24	-0.43	6.90
193
Head	-11.50	15.19	-3.72
Neck	-11.50	15.19	-3.72
LeftCollar	-11.50	15.19	-3.72
Torso	-11.50	15.19	-3.72
root	94.29	-397.60	3147.11	15.92	5.84	1.52
LeftShoulder	-2.34	8.10	-59.04
RightShoulder	-4.74	11.82	71.84
LeftElbow	-12.97	79.64	-71.48
RightElbow	-10.53	-63.73	82.28
LeftWrist	-11.63	78.45	-70.11
RightWrist	-11.00	-64.93	82.80
LeftHand	-11.63	78.45	-70.11
RightHand	-11.00	-64.93	82.80
LeftHip	80.46	-7.54	2.91
RightHip	69.24	-0.46	7.00
LeftKnee	-9.29	-7.54	2.91
RightKnee	-9.75	-0.46	7.00
LeftAnkle	-9.29	-7.54	2.91
RightAnkle	-9.75	-0.46	7.00
194
Head	-11.50	15.19	-3.72
Neck	-11.50	15.19	-3.72
LeftCollar	-11.50	15.19	-3.72
Torso	-11.50	15.19	-3.72
root	94.29	-397.60	3147.11	15.92	5.84	1.52
LeftShoulder	-2.34	8.10	-59.04
RightShoulder	-4.74	11.82	71.84
LeftElbow	-12.97	79.64	-71.48
RightElbow	-10.53	-63.73	82.28
LeftWrist	-11.63	78.45	-70.11
RightWrist	-11.00	-64.93	82.80
LeftHand	-11.63	78.45	-70.11
RightHand	-11.00	-64.93	82.80
LeftHip	80.46	-7.54	2.91
RightHip	69.24	-0.46	7.00
LeftKnee	-9.29	-7.54	2.91
RightKnee	-9.75	-0.46	7.00
LeftAnkle	-9.29	-7.54	2.91
RightAnkle	-9.75	-0.46	7.00
195
Head	-15.70	14.00	-4.59
Neck	-15.70	14.00	-4.59
LeftCollar	-15.70	14.00	-4.59
Torso	-15.70	14.00	-4.59
root	94.29	-397.32	3137.23	12.06	5.33	1.00
LeftShoulder	-5.81	9.43	-57.89
RightShoulder	-7.27	14.03	70.88
LeftElbow	-21.68	74.31	-77.88
RightElbow	-13.67	-58.71	84.39
LeftWrist	-19.59	72.66	-75.70
RightWrist	-14.04	-59.59	84.82
LeftHand	-19.59	72.66	-75.70
RightHand	-14.04	-59.59	84.82
LeftHip	80.57	-7.74	2.85
RightHip	67.89	-0.49	7.14
LeftKnee	-9.72	-7.74	2.85
RightKnee	-10.17	-0.49	7.14
LeftAnkle	-9.72	-7.74	2.85
RightAnkle	-10.17	-0.49	7.14
196
Head	-15.70	14.00	-4.59
Neck	-15.70	14.00	-4.59
LeftCollar	-15.70	14.00	-4.59
Torso	-15.70	14.00	-4.59
root	94.29	-397.32	3137.23	12.06	5.33	1.00
LeftShoulder	-5.81	9.43	-57.89
RightShoulder	-7.27	14.03	70.88
LeftElbow	-21.68	74.31	-77.88
RightElbow	-13.67	-58.71	84.39
LeftWrist	-19.59	72.66	-75.70
RightWrist	-14.04	-59.59	84.82
LeftHand	-19.59	72.66	-75.70
RightHand	-14.04	-59.59	84.82
LeftHip	80.57	-7.74	2.85
RightHip	67.89	-0.49	7.14
LeftKnee	-9.72	-7.74	2.85
RightKnee	-10.17	-0.49	7.14
LeftAnkle	-9.72	-7.74	2.85
RightAnkle	-10.17	-0.49	7.14
197
Head	-20.92	12.59	-5.55
Neck	-20.92	12.59	-5.55
LeftCollar	-20.92	12.59	-5.55
Torso	-20.92	12.59	-5.55
root	98.29	-399.06	3120.91	9.98	1.70	-0.31
LeftShoulder	-8.77	10.02	-57.13
RightShoulder	-9.80	16.61	69.31
LeftElbow	-25.19	69.35	-79.35
RightElbow	-16.10	-53.97	85.28
LeftWrist	-23.02	67.43	-77.02
RightWrist	-16.43	-54.77	85.68
LeftHand	-23.02	67.43	-77.02
RightHand	-16.43	-54.77	85.68
LeftHip	80.63	-8.09	2.58
RightHip	62.41	0.06	7.59
LeftKnee	-10.93	-8.09	2.58
RightKnee	-13.26	0.06	7.59
LeftAnkle	-10.93	-8.09	2.58
RightAnkle	-13.26	0.06	7.59
198
Head	-20.92	12.59	-5.55
Neck	-20.92	12.59	-5.55
LeftCollar	-20.92	12.59	-5.55
Torso	-20.92	12.59	-5.55
root	98.29	-399.06	3120.91	9.98	1.70	-0.31
LeftShoulder	-8.77	10.02	-57.13
RightShoulder	-9.80	16.61	69.31
LeftElbow	-25.19	69.35	-79.35
RightElbow	-16.10	-53.97	85.28
LeftWrist	-23.02	67.43	-77.02
RightWrist	-16.43	-54.77	85.68
LeftHand	-23.02	67.43	-77.02
RightHand	-16.43	-54.77	85.68
LeftHip	80.63	-8.09	2.58
RightHip	62.41	0.06	7.59
LeftKnee	-10.93	-8.09	2.58
RightKnee	-13.26	0.06	7.59
LeftAnkle	-10.93	-8.09	2.58
RightAnkle	-13.26	0.06	7.59
199
Head	-25.84	11.17	-6.32
Neck	-25.84	11.17	-6.32
LeftCollar	-25.84	11.17	-6.32
Torso	-25.84	11.17	-6.32
root	102.34	-409.44	3093.67	8.56	0.52	-2.07
LeftShoulder	-12.07	7.23	-55.46
RightShoulder	-10.95	20.32	68.57
LeftElbow	-30.17	65.63	-81.82
RightElbow	-16.31	-50.63	85.17
LeftWrist	-28.14	63.91	-79.57
RightWrist	-16.66	-51.57	85.61
LeftHand	-28.14	63.91	-79.57
RightHand	-16.66	-51.57	85.61
LeftHip	80.54	-9.12	2.34
RightHip	56.44	0.78	8.77
LeftKnee	-15.14	-9.12	2.34
RightKnee	-19.64	0.78	8.77
LeftAnkle	-15.14	-9.12	2.34
RightAnkle	-19.64	0.78	8.77
200
Head	-25.84	11.17	-6.32
Neck	-25.84	11.17	-6.32
LeftCollar	-25.84	11.17	-6.32
Torso	-25.84	11.17	-6.32
root	102.34	-409.44	3093.67	8.56	0.52	-2.07
LeftShoulder	-12.07	7.23	-55.46
RightShoulder	-10.95	20.32	68.57
LeftElbow	-30.17	65.63	-81.82
RightElbow	-16.31	-50.63	85.17
LeftWrist	-28.14	63.91	-79.57
RightWrist	-16.66	-51.57	85.61
LeftHand	-28.14	63.91	-79.57
RightHand	-16.66	-51.57	85.61
LeftHip	80.54	-9.12	2.34
RightHip	56.44	0.78	8.77
LeftKnee	-15.14	-9.12	2.34
RightKnee	-19.64	0.78	8.77
LeftAnkle	-15.14	-9.12	2.34
RightAnkle	-19.64	0.78	8.77
201
Head	-30.88	9.20	-5.95
Neck	-30.88	9.20	-5.95
LeftCollar	-30.88	9.20	-5.95
Torso	-30.88	9.20	-5.95
root	112.33	-425.89	3060.03	4.97	2.85	-2.15
LeftShoulder	-18.37	5.03	-51.85
RightShoulder	-11.69	23.86	67.98
LeftElbow	-43.85	63.06	-90.76
RightElbow	-16.09	-48.04	84.87
LeftWrist	-41.89	61.96	-88.55
RightWrist	-16.48	-49.21	85.39
LeftHand	-41.89	61.96	-88.55
RightHand	-16.48	-49.21	85.39
LeftHip	79.21	-7.94	2.21
RightHip	50.42	4.00	10.91
LeftKnee	-21.66	-7.94	2.21
RightKnee	-23.65	4.00	10.91
LeftAnkle	-21.66	-7.94	2.21
RightAnkle	-23.65	4.00	10.91
202
Head	-30.88	9.20	-5.95
Neck	-30.88	9.20	-5.95
LeftCollar	-30.88	9.20	-5.95
Torso	-30.88	9.20	-5.95
root	112.33	-425.89	3060.03	4.97	2.85	-2.15
LeftShoulder	-18.37	5.03	-51.85
RightShoulder	-11.69	23.86	67.98
LeftElbow	-43.85	63.06	-90.76
RightElbow	-16.09	-48.04	84.87
LeftWrist	-41.89	61.96	-88.55
RightWrist	-16.48	-49.21	85.39
LeftHand	-41.89	61.96	-88.55
RightHand	-16.48	-49.21	85.39
LeftHip	79.21	-7.94	2.21
RightHip	50.42	4.00	10.91
LeftKnee	-21.66	-7.94	2.21
RightKnee	-23.65	4.00	10.91
LeftAnkle	-21.66	-7.94	2.21
RightAnkle	-23.65	4.00	10.91
203
Head	-30.88	9.20	-5.95
Neck	-30.88	9.20	-5.95
LeftCollar	-30.88	9.20	-5.95
Torso	-30.88	9.20	-5.95
root	112.33	-425.89	3060.03	4.97	2.85	-2.15
LeftShoulder	-18.37	5.03	-51.85
RightShoulder	-11.69	23.86	67.98
LeftElbow	-43.85	63.06	-90.76
RightElbow	-16.09	-48.04	84.87
LeftWrist	-41.89	61.96	-88.55
RightWrist	-16.48	-49.21	85.39
LeftHand	-41.89	61.96	-88.55
RightHand	-16.48	-49.21	85.39
LeftHip	79.21	-7.94	2.21
RightHip	50.42	4.00	10.91
LeftKnee	-21.66	-7.94	2.21
RightKnee	-23.65	4.00	10.91
LeftAnkle	-21.66	-7.94	2.21
RightAnkle	-23.65	4.00	10.91
